<svg width="952" height="498" viewBox="0 0 952 498" fill="none" xmlns="http://www.w3.org/2000/svg">
<g filter="url(#filter0_d_31_12)">
<path d="M138 137V111.512H118.602L118.34 136.672C125.051 136.778 131.653 136.887 138 137Z" fill="#3689B1" fill-opacity="0.09"/>
<path d="M11 3V135.296C11 135.296 67.7534 135.875 118.34 136.672L118.602 111.512H31.9725V38.6753L72.7523 90.7019L119.358 38.6753L118.602 111.512H138V3H119.358L72.7523 55.0265L31.9725 3H11Z" fill="#3689B1" fill-opacity="0.09"/>
<path d="M165.636 258H116.347V112.545H166.631C181.072 112.545 193.477 115.457 203.847 121.281C214.263 127.058 222.265 135.367 227.852 146.21C233.439 157.053 236.233 170.027 236.233 185.131C236.233 200.282 233.416 213.303 227.781 224.193C222.194 235.083 214.121 243.44 203.562 249.264C193.051 255.088 180.409 258 165.636 258ZM142.696 235.202H164.358C174.491 235.202 182.942 233.355 189.713 229.662C196.484 225.921 201.574 220.358 204.983 212.972C208.392 205.538 210.097 196.258 210.097 185.131C210.097 174.004 208.392 164.771 204.983 157.432C201.574 150.045 196.531 144.529 189.855 140.884C183.226 137.19 174.988 135.344 165.139 135.344H142.696V235.202Z" fill="#3689B1" fill-opacity="0.09"/>
<path d="M249.783 258.586C249.393 258.195 249.197 257.365 249.197 256.096C249.197 254.24 249.344 253.312 249.637 253.312C250.809 253.312 252.518 252.971 254.764 252.287C257.107 251.604 259.256 250.725 261.209 249.65C263.26 248.479 264.334 247.209 264.432 245.842L265.018 238.811C266.092 221.33 266.727 206.779 266.922 195.158C267.117 183.537 267.361 175.822 267.654 172.014C267.654 170.939 267.508 170.061 267.215 169.377C267.02 168.791 266.189 168.303 264.725 167.912C263.26 167.424 261.697 167.033 260.037 166.74C258.475 166.447 257.254 166.301 256.375 166.301C255.984 166.301 255.789 165.275 255.789 163.225C255.789 162.15 255.984 161.418 256.375 161.027C257.352 161.027 258.816 161.125 260.77 161.32C262.82 161.418 264.969 161.564 267.215 161.76C269.559 161.857 271.561 161.906 273.221 161.906C274.588 161.906 276.297 161.857 278.348 161.76C280.496 161.564 282.547 161.418 284.5 161.32C286.453 161.125 287.82 161.027 288.602 161.027C289.09 162.59 290.311 165.666 292.264 170.256C294.314 174.846 297.098 180.949 300.613 188.566C304.129 196.281 307.205 203.117 309.842 209.074C312.479 214.934 314.627 220.012 316.287 224.309H316.58C316.775 224.309 316.873 224.26 316.873 224.162C320.584 214.885 323.953 206.389 326.98 198.674C330.008 190.959 332.596 184.074 334.744 178.02L339.578 161.613C340.457 161.711 341.873 161.809 343.826 161.906C345.877 161.906 348.416 161.906 351.443 161.906L369.9 161.027C370.291 161.516 370.486 162.297 370.486 163.371C370.486 165.422 370.242 166.447 369.754 166.447H369.607C367.166 166.447 365.115 167.033 363.455 168.205C361.893 169.279 361.209 171.281 361.404 174.211L364.334 235.734C364.627 241.594 365.359 246.086 366.531 249.211C366.824 249.797 367.508 250.383 368.582 250.969C369.754 251.555 370.975 252.092 372.244 252.58C373.514 252.971 374.441 253.166 375.027 253.166C375.418 253.166 375.613 254.143 375.613 256.096C375.613 256.975 375.516 257.805 375.32 258.586C374.637 258.488 373.123 258.342 370.779 258.146C368.436 258.049 365.945 257.902 363.309 257.707C360.672 257.512 358.475 257.414 356.717 257.414C354.959 257.414 352.566 257.512 349.539 257.707C346.512 257.902 343.631 258.049 340.896 258.146C338.26 258.342 336.453 258.488 335.477 258.586C334.988 258.098 334.744 257.316 334.744 256.242C334.744 254.191 334.891 253.166 335.184 253.166C335.965 253.166 336.99 252.971 338.26 252.58C339.529 252.092 340.75 251.555 341.922 250.969C343.191 250.285 343.973 249.65 344.266 249.064C345.047 247.502 345.438 246.135 345.438 244.963C345.438 243.889 345.389 242.619 345.291 241.154C345.291 239.689 345.242 238.078 345.145 236.32L343.973 199.113C343.582 192.57 343.191 189.299 342.801 189.299C342.605 189.299 342.361 189.641 342.068 190.324L316.727 253.459C316.336 254.436 315.555 255.51 314.383 256.682C313.211 257.756 312.039 258.293 310.867 258.293C310.77 258.293 310.33 258.195 309.549 258L277.322 185.637L274.832 242.033C274.832 243.4 274.832 244.523 274.832 245.402C274.832 246.281 274.881 246.916 274.979 247.307C275.174 247.893 275.857 248.527 277.029 249.211C278.299 249.895 279.764 250.529 281.424 251.115C283.084 251.701 284.646 252.189 286.111 252.58C287.674 252.971 288.748 253.166 289.334 253.166C289.725 253.166 289.92 254.143 289.92 256.096C289.92 256.975 289.822 257.805 289.627 258.586C283.768 258.586 279.324 258.537 276.297 258.439C273.367 258.342 271.268 258.244 269.998 258.146C268.729 258.049 267.801 258 267.215 258C266.629 257.902 265.896 257.854 265.018 257.854C264.139 257.854 262.576 257.902 260.33 258C258.084 258.098 254.568 258.293 249.783 258.586ZM384.402 258.586C384.012 258.195 383.816 257.365 383.816 256.096C383.816 254.143 384.012 253.166 384.402 253.166C385.184 253.166 386.307 253.02 387.771 252.727C389.236 252.434 390.604 252.043 391.873 251.555C393.143 250.969 393.875 250.432 394.07 249.943C394.656 247.697 394.949 243.4 394.949 237.053V181.682C394.949 176.213 394.656 172.404 394.07 170.256C393.875 169.67 393.094 169.084 391.727 168.498C390.457 167.814 389.09 167.277 387.625 166.887C386.16 166.398 385.037 166.154 384.256 166.154C383.865 166.154 383.67 165.275 383.67 163.518C383.67 161.955 383.816 161.027 384.109 160.734C388.016 160.93 391.727 161.125 395.242 161.32C398.855 161.418 402.322 161.467 405.643 161.467H431.131C439.041 161.467 446.121 162.736 452.371 165.275C458.719 167.814 464.09 171.281 468.484 175.676C472.879 180.07 476.199 185.1 478.445 190.764C480.789 196.428 481.961 202.434 481.961 208.781C481.961 218.156 479.91 226.604 475.809 234.123C471.707 241.545 465.848 247.453 458.23 251.848C450.613 256.242 441.531 258.439 430.984 258.439C430.008 258.439 428.543 258.391 426.59 258.293C424.734 258.293 422.391 258.244 419.559 258.146C416.727 257.951 414.139 257.805 411.795 257.707C409.451 257.609 407.449 257.609 405.789 257.707L384.402 258.586ZM433.328 250.236C441.531 250.236 447.879 246.721 452.371 239.689C456.863 232.658 459.109 222.16 459.109 208.195C459.109 200.969 458.035 194.475 455.887 188.713C453.738 182.854 450.662 178.215 446.658 174.797C442.752 171.379 437.967 169.67 432.303 169.67H431.57C423.27 169.67 418.533 170.451 417.361 172.014C416.092 173.674 415.457 176.75 415.457 181.242V238.078C415.457 244.426 415.896 247.844 416.775 248.332C418.924 249.602 424.441 250.236 433.328 250.236ZM488.699 258.586C488.309 258.195 488.113 257.365 488.113 256.096C488.113 254.24 488.26 253.312 488.553 253.312C489.725 253.312 491.434 252.971 493.68 252.287C496.023 251.604 498.172 250.725 500.125 249.65C502.176 248.479 503.25 247.209 503.348 245.842L503.934 238.811C505.008 221.33 505.643 206.779 505.838 195.158C506.033 183.537 506.277 175.822 506.57 172.014C506.57 170.939 506.424 170.061 506.131 169.377C505.936 168.791 505.105 168.303 503.641 167.912C502.176 167.424 500.613 167.033 498.953 166.74C497.391 166.447 496.17 166.301 495.291 166.301C494.9 166.301 494.705 165.275 494.705 163.225C494.705 162.15 494.9 161.418 495.291 161.027C496.268 161.027 497.732 161.125 499.686 161.32C501.736 161.418 503.885 161.564 506.131 161.76C508.475 161.857 510.477 161.906 512.137 161.906C513.504 161.906 515.213 161.857 517.264 161.76C519.412 161.564 521.463 161.418 523.416 161.32C525.369 161.125 526.736 161.027 527.518 161.027C528.006 162.59 529.227 165.666 531.18 170.256C533.23 174.846 536.014 180.949 539.529 188.566C543.045 196.281 546.121 203.117 548.758 209.074C551.395 214.934 553.543 220.012 555.203 224.309H555.496C555.691 224.309 555.789 224.26 555.789 224.162C559.5 214.885 562.869 206.389 565.896 198.674C568.924 190.959 571.512 184.074 573.66 178.02L578.494 161.613C579.373 161.711 580.789 161.809 582.742 161.906C584.793 161.906 587.332 161.906 590.359 161.906L608.816 161.027C609.207 161.516 609.402 162.297 609.402 163.371C609.402 165.422 609.158 166.447 608.67 166.447H608.523C606.082 166.447 604.031 167.033 602.371 168.205C600.809 169.279 600.125 171.281 600.32 174.211L603.25 235.734C603.543 241.594 604.275 246.086 605.447 249.211C605.74 249.797 606.424 250.383 607.498 250.969C608.67 251.555 609.891 252.092 611.16 252.58C612.43 252.971 613.357 253.166 613.943 253.166C614.334 253.166 614.529 254.143 614.529 256.096C614.529 256.975 614.432 257.805 614.236 258.586C613.553 258.488 612.039 258.342 609.695 258.146C607.352 258.049 604.861 257.902 602.225 257.707C599.588 257.512 597.391 257.414 595.633 257.414C593.875 257.414 591.482 257.512 588.455 257.707C585.428 257.902 582.547 258.049 579.812 258.146C577.176 258.342 575.369 258.488 574.393 258.586C573.904 258.098 573.66 257.316 573.66 256.242C573.66 254.191 573.807 253.166 574.1 253.166C574.881 253.166 575.906 252.971 577.176 252.58C578.445 252.092 579.666 251.555 580.838 250.969C582.107 250.285 582.889 249.65 583.182 249.064C583.963 247.502 584.354 246.135 584.354 244.963C584.354 243.889 584.305 242.619 584.207 241.154C584.207 239.689 584.158 238.078 584.061 236.32L582.889 199.113C582.498 192.57 582.107 189.299 581.717 189.299C581.521 189.299 581.277 189.641 580.984 190.324L555.643 253.459C555.252 254.436 554.471 255.51 553.299 256.682C552.127 257.756 550.955 258.293 549.783 258.293C549.686 258.293 549.246 258.195 548.465 258L516.238 185.637L513.748 242.033C513.748 243.4 513.748 244.523 513.748 245.402C513.748 246.281 513.797 246.916 513.895 247.307C514.09 247.893 514.773 248.527 515.945 249.211C517.215 249.895 518.68 250.529 520.34 251.115C522 251.701 523.562 252.189 525.027 252.58C526.59 252.971 527.664 253.166 528.25 253.166C528.641 253.166 528.836 254.143 528.836 256.096C528.836 256.975 528.738 257.805 528.543 258.586C522.684 258.586 518.24 258.537 515.213 258.439C512.283 258.342 510.184 258.244 508.914 258.146C507.645 258.049 506.717 258 506.131 258C505.545 257.902 504.812 257.854 503.934 257.854C503.055 257.854 501.492 257.902 499.246 258C497 258.098 493.484 258.293 488.699 258.586ZM634.158 259.611C630.545 259.611 627.811 258.439 625.955 256.096C624.1 253.752 623.172 251.213 623.172 248.479C623.172 245.744 624.051 243.254 625.809 241.008C627.566 238.762 630.252 237.639 633.865 237.639C636.795 237.639 639.285 238.713 641.336 240.861C643.484 242.912 644.559 245.402 644.559 248.332C644.559 251.359 643.533 253.996 641.482 256.242C639.529 258.488 637.088 259.611 634.158 259.611ZM650.857 258.586C650.467 258.195 650.271 257.463 650.271 256.389C650.271 254.338 650.369 253.312 650.564 253.312C651.346 253.312 652.518 253.068 654.08 252.58C655.643 252.092 657.156 251.506 658.621 250.822C660.184 250.041 661.16 249.309 661.551 248.625C662.332 247.453 663.162 246.037 664.041 244.377C664.92 242.619 665.555 241.203 665.945 240.129L666.678 238.371L699.051 163.957C700.125 161.418 701.932 160.148 704.471 160.148C705.936 160.148 707.107 160.783 707.986 162.053L738.016 236.32C738.895 238.566 739.725 240.715 740.506 242.766C741.385 244.719 742.166 246.574 742.85 248.332C743.24 249.309 744.119 250.188 745.486 250.969C746.854 251.652 748.318 252.189 749.881 252.58C751.541 252.971 752.811 253.166 753.689 253.166C754.08 253.166 754.275 253.996 754.275 255.656C754.275 257.219 754.178 258.195 753.982 258.586L745.047 258C742.215 257.805 739.773 257.658 737.723 257.561C735.672 257.365 734.012 257.316 732.742 257.414L710.623 258.586C710.232 258.195 710.037 257.17 710.037 255.51C710.037 253.947 710.232 253.166 710.623 253.166C712.771 253.166 714.969 252.727 717.215 251.848C719.461 250.871 720.584 249.602 720.584 248.039C720.584 247.941 720.291 247.062 719.705 245.402C719.217 243.742 718.289 241.35 716.922 238.225L712.527 227.531C712.137 227.141 711.795 226.945 711.502 226.945C710.525 226.848 708.865 226.799 706.521 226.799C704.178 226.799 701.15 226.799 697.439 226.799C694.217 226.799 691.336 226.799 688.797 226.799C686.355 226.799 684.305 226.848 682.645 226.945C682.254 226.945 681.912 227.189 681.619 227.678L676.785 238.811C675.125 242.717 674.148 245.549 673.855 247.307C673.66 249.064 674.539 250.432 676.492 251.408C678.25 252.287 679.764 252.824 681.033 253.02C682.4 253.117 683.572 253.166 684.549 253.166C684.842 253.264 684.988 254.045 684.988 255.51C684.988 256.779 684.891 257.805 684.695 258.586C680.301 258.293 677.078 258.049 675.027 257.854C673.074 257.658 671.609 257.561 670.633 257.561C669.656 257.463 668.582 257.463 667.41 257.561C666.336 257.658 664.578 257.805 662.137 258C659.695 258.098 655.936 258.293 650.857 258.586ZM697.439 218.01C699.393 218.01 701.199 218.01 702.859 218.01C704.617 217.912 706.277 217.814 707.84 217.717L708.279 216.984L697.732 190.764L686.307 216.984C686.307 217.375 686.404 217.57 686.6 217.57C689.529 217.863 693.143 218.01 697.439 218.01ZM758.523 258.586C758.133 258.195 757.938 257.414 757.938 256.242C757.938 254.191 758.084 253.166 758.377 253.166C759.158 253.166 760.281 252.971 761.746 252.58C763.211 252.189 764.578 251.701 765.848 251.115C767.117 250.529 767.85 249.992 768.045 249.504C768.436 248.137 768.68 246.477 768.777 244.523C768.973 242.57 769.07 240.324 769.07 237.785V181.535C769.07 175.285 768.68 171.477 767.898 170.109C767.605 169.523 766.824 168.986 765.555 168.498C764.383 167.912 763.162 167.424 761.893 167.033C760.623 166.643 759.598 166.447 758.816 166.447C758.426 166.447 758.23 165.617 758.23 163.957C758.23 162.199 758.328 161.223 758.523 161.027L765.555 161.467C767.703 161.662 769.461 161.809 770.828 161.906C772.195 162.004 773.514 162.053 774.783 162.053C776.15 161.955 777.811 161.906 779.764 161.906C781.717 161.906 788.553 161.613 800.271 161.027C800.564 161.906 800.711 162.785 800.711 163.664C800.711 165.52 800.516 166.447 800.125 166.447C799.539 166.447 798.514 166.643 797.049 167.033C795.584 167.424 794.168 167.912 792.801 168.498C791.531 168.986 790.799 169.475 790.604 169.963C790.311 171.135 790.066 172.795 789.871 174.943C789.676 176.994 789.578 178.752 789.578 180.217V236.613C789.578 239.348 789.676 241.789 789.871 243.938C790.066 246.086 790.359 247.941 790.75 249.504C790.945 249.895 791.629 250.383 792.801 250.969C794.07 251.555 795.389 252.092 796.756 252.58C798.221 252.971 799.246 253.166 799.832 253.166C800.223 253.166 800.418 254.094 800.418 255.949C800.418 256.926 800.32 257.805 800.125 258.586C799.734 258.586 798.807 258.537 797.342 258.439C795.877 258.342 793.875 258.195 791.336 258C788.797 257.805 786.551 257.658 784.598 257.561C782.645 257.463 781.033 257.414 779.764 257.414C778.006 257.414 775.613 257.512 772.586 257.707C769.559 257.902 766.678 258.049 763.943 258.146C761.307 258.342 759.5 258.488 758.523 258.586Z" fill="#3689B1" fill-opacity="0.09"/>
</g>
<defs>
<filter id="filter0_d_31_12" x="0.6" y="0.6" width="810.511" height="277.411" filterUnits="userSpaceOnUse" color-interpolation-filters="sRGB">
<feFlood flood-opacity="0" result="BackgroundImageFix"/>
<feColorMatrix in="SourceAlpha" type="matrix" values="0 0 0 0 0 0 0 0 0 0 0 0 0 0 0 0 0 0 127 0" result="hardAlpha"/>
<feOffset dy="8"/>
<feGaussianBlur stdDeviation="5.2"/>
<feComposite in2="hardAlpha" operator="out"/>
<feColorMatrix type="matrix" values="0 0 0 0 0.0405029 0 0 0 0 0.397287 0 0 0 0 0.569231 0 0 0 0.25 0"/>
<feBlend mode="normal" in2="BackgroundImageFix" result="effect1_dropShadow_31_12"/>
<feBlend mode="normal" in="SourceGraphic" in2="effect1_dropShadow_31_12" result="shape"/>
</filter>
</defs>
</svg>
